<?xml version="1.0" standalone="no"?>
<!DOCTYPE svg PUBLIC "-//W3C//DTD SVG 20010904//EN"
 "http://www.w3.org/TR/2001/REC-SVG-20010904/DTD/svg10.dtd">
<svg version="1.0" xmlns="http://www.w3.org/2000/svg"
 width="348.000000pt" height="192.000000pt" viewBox="0 0 348.000000 192.000000"
 preserveAspectRatio="xMidYMid meet">

<g transform="translate(0.000000,192.000000) scale(0.100000,-0.100000)"
fill="#000000" stroke="none">
<path d="M2031 1409 c14 -13 74 -77 133 -141 73 -79 113 -116 125 -113 10 2
18 -3 18 -11 0 -10 -4 -11 -14 -3 -24 21 -13 -2 15 -30 l28 -28 2 26 c1 20 0
23 -8 11 -8 -12 -9 -9 -6 10 2 14 -2 32 -8 40 -9 13 -9 13 5 3 9 -7 20 -9 25
-5 4 4 3 0 -4 -9 -7 -9 -8 -19 -3 -25 5 -5 12 -18 15 -29 3 -11 4 -5 2 13 -1
18 0 35 4 37 4 2 8 -24 9 -58 1 -34 4 -64 7 -66 2 -2 4 84 4 192 l0 197 -169
0 c-93 0 -178 3 -188 7 -13 5 -10 0 8 -18z"/>
<path d="M1568 1043 c94 -2 250 -2 345 0 94 1 17 3 -173 3 -190 0 -267 -2
-172 -3z"/>
<path d="M1568 953 c94 -2 250 -2 345 0 94 1 17 3 -173 3 -190 0 -267 -2 -172
-3z"/>
<path d="M1572 803 c92 -2 245 -2 340 0 95 1 20 3 -167 3 -187 0 -265 -2 -173
-3z"/>
<path d="M1562 733 c92 -2 245 -2 340 0 95 1 20 3 -167 3 -187 0 -265 -2 -173
-3z"/>
<path d="M1599 583 l200 -3 4 -35 4 -35 -1 37 -1 38 -203 0 -202 1 199 -3z"/>
<path d="M1498 493 c56 -2 148 -2 205 0 56 1 10 3 -103 3 -113 0 -159 -2 -102
-3z"/>
<path d="M1102 185 c0 -16 2 -22 5 -12 2 9 2 23 0 30 -3 6 -5 -1 -5 -18z"/>
<path d="M2372 185 c0 -16 2 -22 5 -12 2 9 2 23 0 30 -3 6 -5 -1 -5 -18z"/>
<path d="M1110 143 c0 -5 10 -18 23 -29 l22 -19 -20 25 c-11 14 -21 27 -22 29
-2 2 -3 0 -3 -6z"/>
<path d="M2346 122 l-19 -27 24 22 c12 12 21 24 18 27 -2 2 -13 -8 -23 -22z"/>
</g>
</svg>
